<svg width="36" height="36" viewBox="0 0 36 36" fill="none" xmlns="http://www.w3.org/2000/svg">
<path d="M36 18C36 27.9411 27.9411 36 18 36C8.05894 36 0 27.9411 0 18C0 18.0042 18 0.00203906 18 0C27.9411 0 36 8.05894 36 18Z" fill="#0052B4"/>
<path d="M18.0009 0C17.9996 0 17.9983 9.16754e-05 17.997 9.16754e-05L18.0009 0Z" fill="#F0F0F0"/>
<path d="M17.9518 18H18C18 17.9837 18 17.9681 18 17.9518C17.984 17.9679 17.9679 17.9839 17.9518 18Z" fill="#F0F0F0"/>
<path d="M18 9.39229C18 6.22507 18 4.14965 18 0.00100708H17.997C8.05725 0.00262427 0 8.06079 0 18.0009H9.39129V12.7126L14.6796 18.0009H17.9519C17.968 17.9849 17.984 17.9689 18.0001 17.9528C18.0001 16.7401 18.0001 15.6581 18.0001 14.6807L12.7117 9.39229H18Z" fill="#F0F0F0"/>
<path d="M9.10653 2.34781C6.29128 3.95086 3.95086 6.29128 2.34781 9.10652V18H7.04349V7.04356V7.04349H18C18 5.5625 18 4.1516 18 2.34781H9.10653Z" fill="#D80027"/>
<path d="M18 15.7865L11.6049 9.39142H9.39138C9.39138 9.39135 9.39138 9.39142 9.39138 9.39142L17.9999 18H18C18 18 18 16.4739 18 15.7865Z" fill="#D80027"/>
<path d="M10.8559 21.1304L11.8438 23.1961L14.0746 22.6805L13.0756 24.7408L14.8696 26.1634L12.636 26.6668L12.6422 28.9565L10.8559 27.524L9.0697 28.9565L9.07596 26.6668L6.84227 26.1634L8.6363 24.7408L7.63716 22.6805L9.8681 23.1961L10.8559 21.1304Z" fill="#F0F0F0"/>
<path d="M26.9497 25.0435L27.4436 26.0763L28.5591 25.8185L28.0595 26.8486L28.9565 27.56L27.8397 27.8117L27.8428 28.9565L26.9497 28.2402L26.0566 28.9565L26.0597 27.8117L24.9429 27.56L25.8399 26.8486L25.3404 25.8185L26.4557 26.0763L26.9497 25.0435Z" fill="#F0F0F0"/>
<path d="M22.3547 14.0869L22.8486 15.1198L23.964 14.8619L23.4645 15.8921L24.3615 16.6034L23.2447 16.8551L23.2478 18L22.3547 17.2837L21.4616 18L21.4646 16.8551L20.3479 16.6034L21.2448 15.8921L20.7453 14.8619L21.8608 15.1198L22.3547 14.0869Z" fill="#F0F0F0"/>
<path d="M26.9497 7.82605L27.4436 8.85894L28.5591 8.6011L28.0596 9.63125L28.9565 10.3425L27.8397 10.5943L27.8428 11.7391L26.9497 11.0229L26.0566 11.7391L26.0597 10.5943L24.9429 10.3425L25.8398 9.63125L25.3404 8.6011L26.4557 8.85894L26.9497 7.82605Z" fill="#F0F0F0"/>
<path d="M30.9634 12.5217L31.4572 13.5546L32.5727 13.2967L32.0732 14.3269L32.9702 15.0382L31.8533 15.29L31.8564 16.4348L30.9634 15.7186L30.0703 16.4348L30.0733 15.29L28.9565 15.0382L29.8535 14.3269L29.354 13.2967L30.4694 13.5546L30.9634 12.5217Z" fill="#F0F0F0"/>
<path d="M28.0934 18L28.4818 19.1957H29.7392L28.722 19.9348L29.1106 21.1305L28.0934 20.3915L27.0762 21.1305L27.4647 19.9348L26.4476 19.1957H27.7048L28.0934 18Z" fill="#F0F0F0"/>
</svg>
