<svg width="36" height="36" viewBox="0 0 36 36" fill="none" xmlns="http://www.w3.org/2000/svg">
<path d="M18 36C27.9411 36 36 27.9411 36 18C36 8.05887 27.9411 0 18 0C8.05887 0 0 8.05887 0 18C0 27.9411 8.05887 36 18 36Z" fill="#0052B4"/>
<path d="M18.0001 7.04346L18.5829 8.83706H20.4687L18.943 9.94553L19.5258 11.7391L18.0001 10.6306L16.4743 11.7391L17.0571 9.94553L15.5314 8.83706H17.4173L18.0001 7.04346Z" fill="#FFDA44"/>
<path d="M10.2525 10.2525L11.933 11.1086L13.2665 9.77524L12.9714 11.6378L14.6518 12.494L12.7891 12.789L12.4941 14.6518L11.6379 12.9714L9.77533 13.2665L11.1088 11.933L10.2525 10.2525Z" fill="#FFDA44"/>
<path d="M7.04355 18L8.83715 17.4172V15.5313L9.94556 17.0571L11.7392 16.4743L10.6306 18L11.7392 19.5257L9.94556 18.943L8.83715 20.4687V18.5828L7.04355 18Z" fill="#FFDA44"/>
<path d="M10.2525 25.7474L11.1087 24.0669L9.77533 22.7335L11.638 23.0286L12.494 21.3482L12.7891 23.2109L14.6517 23.5059L12.9715 24.3621L13.2665 26.2247L11.933 24.8912L10.2525 25.7474Z" fill="#FFDA44"/>
<path d="M18.0001 28.9565L17.4172 27.1629H15.5314L17.0572 26.0544L16.4743 24.261L18.0001 25.3694L19.5258 24.261L18.943 26.0544L20.4687 27.1629H18.5828L18.0001 28.9565Z" fill="#FFDA44"/>
<path d="M25.7475 25.7474L24.0671 24.8913L22.7336 26.2248L23.0287 24.362L21.3484 23.5059L23.211 23.2109L23.506 21.3482L24.3622 23.0286L26.2247 22.7335L24.8913 24.0671L25.7475 25.7474Z" fill="#FFDA44"/>
<path d="M28.9565 18L27.1629 18.5828V20.4687L26.0544 18.9429L24.261 19.5257L25.3695 18L24.261 16.4743L26.0545 17.0571L27.1629 15.5313V17.4172L28.9565 18Z" fill="#FFDA44"/>
<path d="M25.7475 10.2525L24.8913 11.933L26.2248 13.2665L24.3621 12.9713L23.506 14.6517L23.211 12.7891L21.3484 12.494L23.0287 11.6378L22.7336 9.77533L24.0672 11.1087L25.7475 10.2525Z" fill="#FFDA44"/>
</svg>
