<svg width="153" height="116" viewBox="0 0 153 116" fill="none" xmlns="http://www.w3.org/2000/svg">
<path d="M137.862 71.715C126.229 70.1622 125.708 70.0785 125.416 69.7176C125.19 69.4385 125.134 69.194 125.201 68.7737C125.371 67.7146 125.603 63.7638 125.604 61.9281C125.604 60.1392 125.369 56.1369 125.205 55.1547C125.149 54.819 125.213 54.5497 125.404 54.3181C125.664 54.0025 126.658 53.85 138.462 52.3158C147.362 51.1591 151.326 50.7015 151.525 50.8078C151.879 50.9972 151.951 51.2226 152.139 52.7133C152.699 57.1608 152.74 65.1977 152.229 70.3429C151.945 73.202 151.856 73.3821 150.734 73.354C150.333 73.3439 144.54 72.6064 137.862 71.715V71.715Z" fill="#F4A901"/>
<path d="M17.0924 114.276C14.0067 110.234 10.1921 103.738 7.83534 98.5129C6.9619 96.5765 6.82865 96.0646 7.09048 95.6515C7.31561 95.2964 30.9771 85.5828 31.3742 85.6825C31.6378 85.7487 32.0139 86.3718 32.9264 88.254C34.6895 91.8907 36.4616 94.891 38.6614 97.9636C39.1089 98.5887 39.2306 98.8888 39.1565 99.1841C39.016 99.7442 19.0018 115.058 18.2972 115.144C17.8523 115.199 17.7286 115.11 17.0924 114.276Z" fill="#05AAE7"/>
<path d="M0.866389 73.0923C0.0190655 72.156 -0.307645 59.9566 0.34707 53.7009C0.595114 51.3309 0.723504 50.883 1.19799 50.7324C1.4913 50.6393 26.3519 53.8703 26.8639 54.068C27.3775 54.2664 27.4547 54.6668 27.2643 56.1467C27.0395 57.8953 27.0316 66.1368 27.253 67.9681C27.4341 69.4657 27.2895 69.9551 26.6191 70.1132C26.1215 70.2307 1.8626 73.3723 1.4536 73.3723C1.26998 73.3723 1.00576 73.2463 0.86642 73.0923H0.866389Z" fill="#A9C701"/>
<path d="M123.619 107.339C115.025 100.73 113.439 99.4493 113.396 99.084C113.359 98.7639 113.591 98.3079 114.287 97.3288C116.389 94.3709 118.34 91.0242 119.932 87.6443C120.618 86.1888 120.891 85.7627 121.185 85.6889C121.457 85.6206 124.731 86.9131 133.059 90.3769C139.383 93.0071 144.763 95.2652 145.014 95.3948C145.725 95.7628 145.727 96.191 145.025 97.7864C142.878 102.667 139.615 108.382 136.369 112.95C135.059 114.794 134.684 115.176 134.199 115.168C133.911 115.163 130.813 112.871 123.619 107.339H123.619Z" fill="#C7007B"/>
<path d="M19.1551 33.4168C12.7978 30.7653 7.48702 28.5052 7.35338 28.3942C7.21975 28.2833 7.11041 28.0558 7.11041 27.8885C7.11041 27.4229 9.45462 22.494 10.99 19.7314C12.5907 16.8513 14.1406 14.3615 15.9744 11.7241C17.5139 9.50997 17.9595 8.99868 18.3483 9C18.5054 9.00048 22.9256 12.2974 28.1708 16.3263C39.6339 25.1312 39.0593 24.6679 39.0558 25.103C39.054 25.2938 38.4926 26.2486 37.8077 27.2247C36.0488 29.7314 34.9145 31.6658 33.1654 35.1411C31.7387 37.9761 31.6142 38.1679 31.1786 38.2017C30.8705 38.2257 26.8191 36.6133 19.1551 33.4168Z" fill="#E5001D"/>
<path d="M120.974 38.1349C120.839 37.977 120.149 36.6676 119.442 35.2251C118.016 32.3181 116.144 29.1262 114.563 26.9067C113.916 25.997 113.526 25.2922 113.526 25.0299C113.526 24.6614 114.768 23.6587 123.659 16.8497C131.047 11.1912 133.926 9.07313 134.287 9.02929C134.754 8.97267 134.852 9.0647 135.978 10.6133C139.293 15.1737 142.937 21.5518 145.153 26.6722C145.643 27.8044 145.664 27.9216 145.441 28.2617C145.26 28.5381 142.328 29.8163 133.58 33.4327C127.189 36.0748 121.794 38.2783 121.59 38.3293C121.344 38.3912 121.139 38.3264 120.974 38.1349V38.1349Z" fill="#008663"/>
<path d="M59 63.9955C59 15.6616 59.0683 14.9577 66.2349 8.38804C72.446 2.69825 78.2476 0.879865 92.6492 0.351946L102 0V6.45234V12.9047L94.0143 13.2566C85.346 13.6672 81.2508 14.3711 79.2032 15.8962C77.2238 17.4213 75.5857 21.1754 74.6984 26.2786C74.2889 28.8596 73.7429 31.5578 73.5381 32.3204L73.1968 33.6108H86.2333H99.2698V39.7699V45.9289H86.6429H74.0159V74.9645V104H66.5079H59V63.9955Z" fill="black"/>
</svg>
