<svg width="247" height="92" viewBox="0 0 247 92" fill="none" xmlns="http://www.w3.org/2000/svg">
<path d="M147.814 84.7045C144.614 84.2698 141.673 82.4506 140.316 80.0517C138.603 77.025 138.522 72.6299 140.138 69.5387C141.754 66.4476 145.697 64.1132 149.301 64.1132C152.792 64.1293 155.329 65.5782 158.173 69.1684L159.175 70.4403L158.739 70.714C158.318 70.9555 148.687 76.1396 146.424 77.3148C145.439 77.8461 145.406 77.8461 145.212 77.5563C145.115 77.3792 144.76 76.7513 144.421 76.1718L143.806 75.0931L145.875 73.9339C150.545 71.3258 153.519 69.5226 153.519 69.3294C153.519 69.2167 152.856 68.7982 152.048 68.3957C150.675 67.7034 150.481 67.6551 149.333 67.6551C146.538 67.6551 144.679 68.8465 143.516 71.3902C142.142 74.3364 142.627 77.4275 144.776 79.5849C146.053 80.8406 147.216 81.2592 149.398 81.2431C152.889 81.2109 153.858 80.5186 155.377 76.9123L156.056 75.3024L157.818 75.3668C158.787 75.399 159.611 75.4473 159.644 75.4795C159.789 75.6083 159.013 78.635 158.642 79.4722C156.961 83.0946 152.355 85.3163 147.814 84.7045Z" fill="black"/>
<path d="M122.943 84.4952C119.905 83.8191 117.724 82.1608 116.431 79.4883C115.041 76.6548 115.057 72.1147 116.447 69.4261C117.287 67.8 118.855 66.3349 120.632 65.4817C122.378 64.6445 123.315 64.4352 125.27 64.4352C127.598 64.4352 129.65 65.0953 130.07 65.9969C130.329 66.5442 130.555 69.2651 130.345 69.2651C130.264 69.2651 129.537 69.0558 128.713 68.7982C126.79 68.1703 125.238 67.9127 124.172 68.0254C122.41 68.2025 120.584 69.41 119.663 70.9877C118.451 73.0324 118.499 76.1396 119.792 78.3291C121.247 80.8084 124.559 81.871 127.905 80.9372C129.246 80.5669 130.313 79.2951 131.007 77.2343C131.573 75.5761 131.702 73.2899 131.702 63.92V55.5804H133.642H135.581V65.4495C135.565 76.687 135.548 76.8801 134.401 79.2951C133.173 81.8871 131.104 83.7386 128.648 84.463C127.581 84.7689 124.333 84.785 122.943 84.4952Z" fill="black"/>
<path d="M73.525 73.0967C73.525 59.8307 73.5412 59.6375 75.238 57.8344C76.7086 56.2727 78.0822 55.7736 81.4921 55.6287L83.706 55.5321V57.3031V59.074L81.8153 59.1706C79.7629 59.2833 78.7933 59.4765 78.3085 59.8951C77.8398 60.3137 77.452 61.3441 77.2419 62.7447C77.1449 63.4531 77.0157 64.1937 76.9672 64.403L76.8864 64.7572H79.973H83.0596V66.4476V68.1381H80.07H77.0803V76.1074V84.0766H75.3027H73.525V73.0967Z" fill="black"/>
<path d="M87.7461 74.2559V64.4191L89.4106 64.4674L91.059 64.5157V74.2559V83.9962L89.4106 84.0444L87.7461 84.0927V74.2559Z" fill="black"/>
<path d="M95.8263 78.2325C95.8263 75.0287 95.9071 71.7766 96.0041 71.036C96.5373 66.7374 99.9957 63.7912 104.504 63.7912C108.464 63.7912 111.841 66.2705 112.633 69.748C112.762 70.3437 112.859 72.8391 112.908 77.3631L112.972 84.0766H110.952H108.916L108.949 78.2486C108.981 70.8589 108.819 69.8446 107.446 68.4923C106.557 67.6229 105.927 67.4136 104.31 67.4136C103.131 67.4136 102.727 67.478 102.21 67.7678C101.24 68.283 100.513 69.0718 99.9795 70.1988C99.5593 71.1004 99.4947 71.4707 99.3654 73.4187C99.3008 74.6262 99.2846 77.5241 99.3331 79.8585L99.4301 84.0766H97.6363H95.8263V78.2325Z" fill="black"/>
<path d="M163.053 74.2559V64.4191L164.799 64.4674L166.528 64.5157L166.576 65.208C166.609 65.5783 166.69 65.8842 166.754 65.8842C166.819 65.8842 167.126 65.691 167.433 65.4656C168.354 64.7733 169.695 64.1776 171.182 63.7912C171.958 63.5819 172.62 63.4531 172.653 63.4853C172.685 63.5175 172.734 64.3064 172.766 65.208L172.83 66.8823L171.376 67.3975C169.437 68.0898 169.033 68.3152 168.322 69.1202C166.851 70.7301 166.609 72.0986 166.609 78.8604V84.0766H164.831H163.053V74.2559Z" fill="black"/>
<path d="M88.6188 61.7949C86.9866 61.0543 86.8896 58.913 88.4733 58.0437C89.249 57.609 89.847 57.5768 90.5257 57.931C91.5761 58.4784 91.9478 59.3638 91.6408 60.5391C91.3337 61.65 89.75 62.31 88.6188 61.7949Z" fill="black"/>
<g clip-path="url(#clip0)">
<path d="M240.23 36.4737C234.895 35.7616 234.656 35.7232 234.522 35.5577C234.418 35.4297 234.393 35.3176 234.424 35.1249C234.501 34.6392 234.608 32.8274 234.608 31.9857C234.608 31.1653 234.5 29.3299 234.425 28.8795C234.4 28.7256 234.429 28.6021 234.516 28.4959C234.636 28.3512 235.092 28.2812 240.505 27.5777C244.586 27.0473 246.404 26.8374 246.495 26.8862C246.657 26.973 246.69 27.0764 246.777 27.76C247.033 29.7995 247.052 33.485 246.818 35.8444C246.688 37.1556 246.647 37.2381 246.132 37.2252C245.948 37.2206 243.292 36.8824 240.23 36.4737V36.4737Z" fill="#F4A901"/>
<path d="M7.83816 55.9911C6.42314 54.1373 4.67386 51.1586 3.59313 48.7625C3.19259 47.8745 3.13148 47.6397 3.25156 47.4503C3.35479 47.2875 14.2053 42.8331 14.3874 42.8788C14.5083 42.9091 14.6808 43.1949 15.0992 44.058C15.9077 45.7257 16.7204 47.1016 17.7291 48.5106C17.9344 48.7972 17.9902 48.9348 17.9562 49.0703C17.8917 49.3271 8.71376 56.3494 8.39065 56.3891C8.18666 56.4142 8.12991 56.3733 7.83816 55.9911Z" fill="#05AAE7"/>
<path d="M0.397303 37.1053C0.00874292 36.6759 -0.141078 31.0816 0.159157 28.2129C0.272904 27.126 0.33178 26.9206 0.549365 26.8516C0.683871 26.8089 12.0843 28.2905 12.3191 28.3812C12.5546 28.4722 12.59 28.6558 12.5027 29.3344C12.3996 30.1363 12.396 33.9156 12.4975 34.7554C12.5806 35.4422 12.5142 35.6666 12.2068 35.7391C11.9786 35.793 0.854139 37.2336 0.666581 37.2336C0.582381 37.2336 0.461214 37.1759 0.397318 37.1053H0.397303Z" fill="#A9C701"/>
<path d="M233.698 52.8098C229.757 49.7793 229.029 49.1919 229.01 49.0243C228.993 48.8776 229.099 48.6684 229.418 48.2194C230.382 46.863 231.277 45.3283 232.007 43.7784C232.322 43.1109 232.447 42.9155 232.582 42.8817C232.706 42.8504 234.208 43.4431 238.027 45.0315C240.927 46.2376 243.394 47.2731 243.509 47.3326C243.835 47.5013 243.836 47.6977 243.514 48.4293C242.529 50.6673 241.033 53.2883 239.545 55.3829C238.944 56.2284 238.772 56.4039 238.549 56.4001C238.417 56.3977 236.997 55.3467 233.698 52.8098H233.698Z" fill="#C7007B"/>
<path d="M8.78402 18.9111C5.86871 17.6952 3.43332 16.6588 3.37204 16.6079C3.31076 16.557 3.26062 16.4527 3.26062 16.376C3.26062 16.1624 4.33561 13.9022 5.03971 12.6353C5.77374 11.3146 6.48447 10.1728 7.32541 8.96341C8.0314 7.94806 8.23572 7.7136 8.414 7.7142C8.48607 7.71442 10.513 9.22629 12.9184 11.0738C18.175 15.1115 17.9116 14.8991 17.9099 15.0986C17.9091 15.1861 17.6516 15.624 17.3376 16.0716C16.531 17.2211 16.0108 18.1081 15.2088 19.7018C14.5545 21.0019 14.4974 21.0898 14.2977 21.1054C14.1564 21.1163 12.2985 20.3769 8.78402 18.9111Z" fill="#E5001D"/>
<path d="M232.485 21.0747C232.423 21.0023 232.107 20.4018 231.782 19.7404C231.129 18.4073 230.27 16.9435 229.545 15.9258C229.248 15.5086 229.069 15.1854 229.069 15.0651C229.069 14.8961 229.639 14.4363 233.716 11.3139C237.104 8.71901 238.424 7.74774 238.59 7.72763C238.804 7.70167 238.849 7.74387 239.365 8.45401C240.886 10.5453 242.557 13.4701 243.573 15.8182C243.798 16.3374 243.807 16.3911 243.705 16.5471C243.622 16.6739 242.277 17.26 238.266 18.9184C235.335 20.13 232.861 21.1404 232.768 21.1638C232.654 21.1922 232.561 21.1625 232.485 21.0747V21.0747Z" fill="#008663"/>
<path d="M36.6764 49.3351C32.5315 48.9674 28.411 46.722 25.6262 43.3135C24.1105 41.4582 22.8736 38.8694 22.3222 36.3979C21.9842 34.8831 21.8989 34.051 21.8923 32.2043C21.8813 29.1461 22.3911 26.8249 23.629 24.2959C25.9002 19.6558 30.0763 16.4348 35.441 15.1851C37.314 14.7488 40.2788 14.5914 42.4019 14.8155C50.7089 15.6923 56.8636 20.7877 58.4047 28.0641C58.7647 29.7639 58.7547 29.4699 58.7823 39.1458C58.8005 45.5561 58.785 48.2809 58.7295 48.3844C58.6518 48.5296 58.5898 48.5313 53.42 48.5313C49.4488 48.5313 48.1682 48.5103 48.1017 48.4439C48.0348 48.377 48.0142 46.5574 48.014 40.6995C48.0139 35.9385 47.9849 32.7255 47.9373 32.2043C47.7915 30.6064 47.3533 29.0958 46.6979 27.9319C46.275 27.1808 45.1281 26.0084 44.3955 25.5781C42.5519 24.4953 39.8379 24.2373 37.7524 24.9467C35.2756 25.7891 33.4523 27.7444 32.8386 30.2163C32.714 30.7178 32.6794 31.0761 32.6782 31.8763C32.6766 33.0183 32.7948 33.7281 33.1505 34.7114C33.9498 36.9202 35.9312 38.6997 38.2837 39.3215C39.6113 39.6724 41.787 39.5603 43.7139 39.0417C44.1749 38.9176 44.6491 38.8126 44.7676 38.8084C45.1757 38.7939 45.1732 38.7646 45.1533 43.294C45.1364 47.1376 45.1262 47.4327 45.0053 47.5663C44.7933 47.8004 43.3661 48.5001 42.6205 48.7354C41.8236 48.987 41.0264 49.154 40.1423 49.2545C39.2171 49.3598 37.4243 49.4015 36.6764 49.3351V49.3351ZM166.458 49.1849C158.118 48.4049 152.334 43.8301 150.563 36.6141C150.445 36.133 150.276 35.2966 150.187 34.7554L150.026 33.7714L150.004 17.3718C149.983 1.95196 149.989 0.966632 150.107 0.880716C150.204 0.809517 151.369 0.78934 155.382 0.78934C160.278 0.78934 160.538 0.795902 160.652 0.922636C160.764 1.04576 160.773 2.19968 160.773 16.0433C160.773 28.9426 160.788 31.1468 160.882 31.8642C161.208 34.353 162.336 36.5204 163.995 37.848C165.314 38.9032 166.817 39.4204 168.562 39.4202C170.756 39.4199 172.705 38.6068 174.128 37.0981C174.739 36.4508 175 36.0661 175.389 35.2422C176.411 33.0764 176.333 30.2438 175.194 28.1954C173.742 25.5845 170.889 24.1835 167.607 24.4695C166.49 24.5669 165.558 24.7508 164.782 25.0273C164.003 25.3045 163.83 25.3271 163.713 25.1667C163.634 25.0587 163.616 24.1567 163.616 20.4248C163.616 17.8901 163.636 15.7632 163.661 15.6983C163.716 15.5536 163.983 15.4393 164.825 15.1984C168.915 14.0288 173.653 14.5564 177.737 16.6363C182.101 18.859 185.187 22.6817 186.357 27.3135C187.376 31.3457 186.968 35.8965 185.262 39.5408C183.048 44.2709 178.791 47.5833 173.383 48.7854C171.984 49.0963 170.966 49.1993 169.046 49.2246C168.003 49.2384 166.839 49.2205 166.458 49.1849V49.1849ZM205.582 49.1497C198.504 48.293 192.832 43.4741 190.984 36.7477C190.498 34.9779 190.405 34.2216 190.404 31.9856C190.402 29.8341 190.466 29.2067 190.85 27.6212C191.861 23.4514 194.439 19.7887 198.019 17.4392C202.097 14.7625 207.301 13.9187 212.159 15.1464C218.275 16.6916 222.962 21.3489 224.512 27.4197C224.869 28.8203 225 29.8046 225.042 31.4128C225.101 33.7116 224.845 35.5375 224.178 37.5616C223.017 41.089 220.744 44.1237 217.699 46.2154C215.332 47.841 212.726 48.8046 209.754 49.1534C208.66 49.2819 206.659 49.2801 205.582 49.1497V49.1497ZM209.645 39.1693C212.188 38.4204 214.009 36.5376 214.69 33.9536C214.915 33.098 214.992 31.6428 214.859 30.7363C214.415 27.7016 212.279 25.331 209.339 24.6119C208.371 24.3751 206.915 24.3914 205.933 24.6501C203.339 25.3334 201.445 27.2515 200.706 29.9448C200.491 30.7306 200.437 32.5143 200.602 33.3943C201.191 36.535 203.562 38.8761 206.656 39.3727C206.777 39.392 207.351 39.3976 207.932 39.3852C208.818 39.3662 209.095 39.3313 209.645 39.1693V39.1693ZM64.2101 48.4439C64.0935 48.3272 64.0835 27.8947 64.1995 26.8259C64.5517 23.5826 65.745 20.8786 67.7451 18.7913C69.7492 16.6999 72.25 15.4198 75.3839 14.8813C76.4478 14.6985 79.0854 14.6975 79.9395 14.8797C82.3943 15.4031 84.76 16.7651 86.7892 18.8234C87.0888 19.1273 87.3608 19.376 87.3936 19.376C87.4264 19.376 87.6077 19.2077 87.7964 19.002C88.3316 18.4184 89.6716 17.294 90.4494 16.7759C91.8125 15.8679 93.2904 15.2299 94.8087 14.8941C95.5468 14.7308 97.4945 14.6696 98.4591 14.7792C104.665 15.4848 109.175 19.5462 110.363 25.4986C110.463 25.9998 110.58 26.8509 110.622 27.3901C110.726 28.7288 110.728 48.1949 110.623 48.3904C110.55 48.5278 110.414 48.5314 105.317 48.5314C101.346 48.5314 100.065 48.5104 99.9985 48.444C99.9314 48.3768 99.911 46.1771 99.911 38.9867C99.9109 33.1726 99.8826 29.319 99.8365 28.832C99.6251 26.603 98.6713 25.3977 96.901 25.1225C95.369 24.8843 94.0228 25.5938 93.3523 26.9929C92.7743 28.1988 92.8135 27.4023 92.7873 38.4678C92.7707 45.4793 92.7408 48.367 92.6841 48.4353C92.5698 48.5731 82.1649 48.578 82.0758 48.4403C82.0434 48.3902 82 43.8556 81.9795 38.3635L81.942 28.3778L81.7738 27.8316C81.297 26.2832 80.3846 25.3745 79.0649 25.1336C78.1943 24.9748 77.1538 25.179 76.4832 25.6404C76.1752 25.8523 75.8029 26.2628 75.5532 26.6659C75.3571 26.9823 75.0759 27.8463 74.9914 28.3917C74.9348 28.7572 74.9102 31.8418 74.9102 38.5827C74.9102 45.1069 74.8857 48.2953 74.8348 48.3905C74.7613 48.5278 74.6255 48.5314 69.5285 48.5314C65.5573 48.5314 64.2766 48.5104 64.2102 48.444L64.2101 48.4439ZM116.605 48.3904C116.554 48.2944 116.53 43.0604 116.53 31.9956C116.53 17.3167 116.541 15.7308 116.644 15.6274C116.746 15.5254 117.328 15.5128 121.95 15.5128C125.891 15.5128 127.163 15.5339 127.23 15.6003C127.357 15.7276 127.357 48.3166 127.23 48.4439C127.163 48.5103 125.883 48.5313 121.911 48.5313C116.814 48.5313 116.679 48.5277 116.605 48.3904V48.3904ZM133.308 48.371C133.181 48.2437 133.181 15.6547 133.308 15.5274C133.375 15.461 134.656 15.4399 138.627 15.4399C143.724 15.4399 143.86 15.4436 143.933 15.5809C143.984 15.6769 144.009 20.8962 144.009 31.9282C144.009 46.4782 143.997 48.151 143.895 48.2965L143.782 48.4585H138.589C134.647 48.4585 133.375 48.4374 133.308 48.371V48.371ZM120.738 12.2682C118.729 11.8874 117.007 10.502 116.268 8.67281C115.911 7.78895 115.838 7.37618 115.838 6.21954C115.838 5.29805 115.864 5.03457 116.005 4.5431C116.494 2.83159 117.582 1.50559 119.117 0.747384C120.106 0.25888 120.742 0.115951 121.923 0.115951C123.133 0.115951 123.739 0.257954 124.839 0.8C125.513 1.1322 125.687 1.26014 126.3 1.87607C126.906 2.48483 127.045 2.67395 127.376 3.34044C127.798 4.19112 127.965 4.76704 128.042 5.63588C128.309 8.67448 126.564 11.2881 123.709 12.125C122.879 12.3685 121.593 12.4304 120.738 12.2682ZM137.813 12.2259C137.061 12.1375 136.365 11.9158 135.59 11.518C135.069 11.2505 134.798 11.046 134.271 10.5227C133.502 9.75965 133.108 9.13718 132.791 8.18753C132.087 6.07503 132.498 3.75238 133.865 2.12874C134.947 0.843367 136.483 0.100774 138.25 0.0092816C142.007 -0.185226 144.909 2.70107 144.713 6.4382C144.663 7.40524 144.523 7.98553 144.142 8.80694C143.194 10.854 141.298 12.1109 138.943 12.2546C138.622 12.2742 138.114 12.2612 137.813 12.2259Z" fill="#010101"/>
</g>
<defs>
<clipPath id="clip0">
<rect width="246.982" height="56.4002" fill="white"/>
</clipPath>
</defs>
</svg>
