<svg width="40" height="41" viewBox="0 0 40 41" fill="none" xmlns="http://www.w3.org/2000/svg">
<path opacity="0.5" d="M16.6566 0.194656C7.47715 0.194656 0 7.6718 0 16.8513C0 26.0307 7.47715 33.5079 16.6566 33.5079C20.6484 33.5079 24.3143 32.0904 27.1874 29.7374L37.1325 39.6825C37.286 39.8424 37.4698 39.97 37.6733 40.0579C37.8767 40.1459 38.0956 40.1923 38.3172 40.1946C38.5388 40.1968 38.7586 40.1548 38.9638 40.0711C39.169 39.9873 39.3554 39.8634 39.5121 39.7067C39.6688 39.55 39.7927 39.3636 39.8764 39.1585C39.9602 38.9533 40.0022 38.7335 39.9999 38.5119C39.9977 38.2903 39.9512 38.0713 39.8633 37.8679C39.7754 37.6645 39.6477 37.4807 39.4879 37.3272L29.5427 27.382C31.8957 24.5089 33.3132 20.843 33.3132 16.8513C33.3132 7.6718 25.8361 0.194656 16.6566 0.194656ZM16.6566 3.52598C24.0357 3.52598 29.9819 9.47218 29.9819 16.8513C29.9819 24.2303 24.0357 30.1765 16.6566 30.1765C9.27753 30.1765 3.33132 24.2303 3.33132 16.8513C3.33132 9.47218 9.27753 3.52598 16.6566 3.52598Z" fill="black"/>
</svg>
