<svg width="37" height="36" viewBox="0 0 37 36" fill="none" xmlns="http://www.w3.org/2000/svg">
<path d="M18.5 36C28.7173 36 37 27.9411 37 18C37 8.05887 28.7173 0 18.5 0C8.28273 0 0 8.05887 0 18C0 27.9411 8.28273 36 18.5 36Z" fill="#F0F0F0"/>
<path d="M17.6957 18H37C37 16.3754 36.7774 14.8015 36.3627 13.3043H17.6957V18Z" fill="#D80027"/>
<path d="M17.6957 8.60871H34.2847C33.1522 6.81067 31.7042 5.2214 30.016 3.91302H17.6957V8.60871Z" fill="#D80027"/>
<path d="M18.5 36C22.8539 36 26.8558 34.5358 30.016 32.087H6.98404C10.1442 34.5358 14.1461 36 18.5 36Z" fill="#D80027"/>
<path d="M2.7153 27.3913H34.2847C35.1939 25.9478 35.8989 24.37 36.3627 22.6956H0.637299C1.10103 24.37 1.80612 25.9478 2.7153 27.3913Z" fill="#D80027"/>
<path d="M8.56955 2.81095H10.2554L8.68727 3.91943L9.28628 5.71303L7.71819 4.60455L6.15009 5.71303L6.66752 4.16355C5.28681 5.28258 4.07665 6.59363 3.07938 8.05444H3.61957L2.62136 8.76002C2.46585 9.01245 2.31669 9.26887 2.17375 9.5291L2.65041 10.9565L1.76111 10.3279C1.54005 10.7835 1.33785 11.2495 1.15611 11.7252L1.68126 13.2979H3.61957L2.0514 14.4064L2.65041 16.2L1.08232 15.0915L0.143014 15.7556C0.0489961 16.4909 0 17.2399 0 18H18.5C18.5 8.05894 18.5 6.88697 18.5 0C14.8454 0 11.4386 1.03148 8.56955 2.81095ZM9.28628 16.2L7.71819 15.0915L6.15009 16.2L6.7491 14.4064L5.18094 13.2979H7.11925L7.71819 11.5043L8.31712 13.2979H10.2554L8.68727 14.4064L9.28628 16.2ZM8.68727 9.16291L9.28628 10.9565L7.71819 9.84804L6.15009 10.9565L6.7491 9.16291L5.18094 8.05444H7.11925L7.71819 6.26084L8.31712 8.05444H10.2554L8.68727 9.16291ZM15.9221 16.2L14.354 15.0915L12.786 16.2L13.385 14.4064L11.8168 13.2979H13.7551L14.354 11.5043L14.953 13.2979H16.8913L15.3231 14.4064L15.9221 16.2ZM15.3231 9.16291L15.9221 10.9565L14.354 9.84804L12.786 10.9565L13.385 9.16291L11.8168 8.05444H13.7551L14.354 6.26084L14.953 8.05444H16.8913L15.3231 9.16291ZM15.3231 3.91943L15.9221 5.71303L14.354 4.60455L12.786 5.71303L13.385 3.91943L11.8168 2.81095H13.7551L14.354 1.01735L14.953 2.81095H16.8913L15.3231 3.91943Z" fill="#0052B4"/>
</svg>
